# xmcd
#
# Track frame offsets:
#	150
#	13658
#	23533
#	32910
#	47133
#	61150
#	75690
#	86115
#	96068
#	111018
#	126505
#	141090
#	153758
#	164093
#	177733
#	186828
#	196935
#	207255
#	220185
#	232330
#	243468
#	253630
#	265613
#	279443
#	290698
#
# Disc length: 4039 seconds
#
# Revision: 5
# Processed by: cddbd v1.5.2PL0 Copyright (c) Steve Scherf et al.
# Submitted via: EasyCDDAExtractor 15.3.0.1
#
DISCID=700fc519
DTITLE=Various Artist - Bloodstains on the Wall  
DYEAR=1994
DGENRE=Blues
TTITLE0=Honeyboy - Bloodstains on the Wall 
TTITLE1=Honeyboy - You Better Move on Away from Here 
TTITLE2=Honeyboy - Have You a Match?
TTITLE3=Pine Bluff Pete - Uncle Sam Blues 
TTITLE4=Pine Bluff Pete - A Woman Acts Funny 
TTITLE5=Clarence London - Goin' Back to Mama 
TTITLE6=Clarence London - Got a Letter this Morning 
TTITLE7=Clarence London - Want to Boogie-Woogie 
TTITLE8=Big Joe Williams - Ride My New Car with Me 
TTITLE9=Big Joe Williams - Rather be Sloppy Drunk 
TTITLE10=Country Joe Bledsoe - Dial 110 Blues 
TTITLE11=Country Joe Bledsoe - Hollywood Boogie 
TTITLE12=Country Joe Bledsoe - One Thing My Baby Likes
TTITLE13=Country Joe Bledsoe - Stormin' and Rainin' 
TTITLE14=Little Temple - I Ate the Wrong Part 
TTITLE15=Little Temple - What a Mistake 
TTITLE16=Little Temple - Mean and Evil 
TTITLE17=Little Temple - Cold Love 
TTITLE18=Pete McKinley - Black Snake Blues 
TTITLE19=Pete McKinley - Cryin' for My Baby 
TTITLE20=Pete McKinley - Looka Here, Boy 
TTITLE21=Pete McKinley - Whistling Blues 
TTITLE22=Pete McKinley - Don't Want Me Blues
TTITLE23=Pete McKinley - David's Boogie 
TTITLE24=Pete McKinley - Sail On, Little Girl
EXTD=\n\n YEAR: 1994
EXTT0=
EXTT1=
EXTT2=
EXTT3=
EXTT4=
EXTT5=
EXTT6=
EXTT7=
EXTT8=
EXTT9=
EXTT10=
EXTT11=
EXTT12=
EXTT13=
EXTT14=
EXTT15=
EXTT16=
EXTT17=
EXTT18=
EXTT19=
EXTT20=
EXTT21=
EXTT22=
EXTT23=
EXTT24=
PLAYORDER=
